<?xml version="1.0" encoding="UTF-8" standalone="no"?>
<!DOCTYPE svg PUBLIC "-//W3C//DTD SVG 1.1//EN"
 "http://www.w3.org/Graphics/SVG/1.1/DTD/svg11.dtd">
<!-- Generated by graphviz version 13.0.1 (20250615.1724)
 -->
<!-- Title: src/include/stroid/config/config.h Pages: 1 -->
<svg width="655pt" height="160pt"
 viewBox="0.00 0.00 655.00 160.00" xmlns="http://www.w3.org/2000/svg" xmlns:xlink="http://www.w3.org/1999/xlink">
<g id="graph0" class="graph" transform="scale(1 1) rotate(0) translate(4 156.25)">
<title>src/include/stroid/config/config.h</title>
<!-- Node1 -->
<g id="Node000001" class="node">
<title>Node1</title>
<g id="a_Node000001"><a xlink:title=" ">
<polygon fill="#999999" stroke="#666666" points="364.75,-152.25 274.5,-152.25 274.5,-121.75 364.75,-121.75 364.75,-152.25"/>
<text xml:space="preserve" text-anchor="start" x="282.5" y="-138.75" font-family="Helvetica,sans-Serif" font-size="10.00">src/include/stroid</text>
<text xml:space="preserve" text-anchor="middle" x="319.62" y="-127.5" font-family="Helvetica,sans-Serif" font-size="10.00">/config/config.h</text>
</a>
</g>
</g>
<!-- Node2 -->
<g id="Node000002" class="node">
<title>Node2</title>
<g id="a_Node000002"><a xlink:href="curvilinear_8h.html" target="_top" xlink:title=" ">
<polygon fill="white" stroke="#666666" points="128.88,-85.75 18.38,-85.75 18.38,-55.25 128.88,-55.25 128.88,-85.75"/>
<text xml:space="preserve" text-anchor="start" x="26.38" y="-72.25" font-family="Helvetica,sans-Serif" font-size="10.00">src/include/stroid</text>
<text xml:space="preserve" text-anchor="middle" x="73.62" y="-61" font-family="Helvetica,sans-Serif" font-size="10.00">/topology/curvilinear.h</text>
</a>
</g>
</g>
<!-- Node1&#45;&gt;Node2 -->
<g id="edge1_Node000001_Node000002" class="edge">
<title>Node1&#45;&gt;Node2</title>
<g id="a_edge1_Node000001_Node000002"><a xlink:title=" ">
<path fill="none" stroke="#63b8ff" d="M263.25,-121.22C223.01,-110.67 169.15,-96.55 129.11,-86.05"/>
<polygon fill="#63b8ff" stroke="#63b8ff" points="262.19,-124.56 272.75,-123.71 263.97,-117.79 262.19,-124.56"/>
</a>
</g>
</g>
<!-- Node4 -->
<g id="Node000004" class="node">
<title>Node4</title>
<g id="a_Node000004"><a xlink:href="mapping_8h.html" target="_top" xlink:title=" ">
<polygon fill="white" stroke="#666666" points="250.5,-85.75 146.75,-85.75 146.75,-55.25 250.5,-55.25 250.5,-85.75"/>
<text xml:space="preserve" text-anchor="start" x="154.75" y="-72.25" font-family="Helvetica,sans-Serif" font-size="10.00">src/include/stroid</text>
<text xml:space="preserve" text-anchor="middle" x="198.62" y="-61" font-family="Helvetica,sans-Serif" font-size="10.00">/topology/mapping.h</text>
</a>
</g>
</g>
<!-- Node1&#45;&gt;Node4 -->
<g id="edge3_Node000001_Node000004" class="edge">
<title>Node1&#45;&gt;Node4</title>
<g id="a_edge3_Node000001_Node000004"><a xlink:title=" ">
<path fill="none" stroke="#63b8ff" d="M282.19,-116.04C264.02,-106.36 242.58,-94.93 225.97,-86.08"/>
<polygon fill="#63b8ff" stroke="#63b8ff" points="280.36,-119.04 290.83,-120.65 283.65,-112.86 280.36,-119.04"/>
</a>
</g>
</g>
<!-- Node6 -->
<g id="Node000006" class="node">
<title>Node6</title>
<g id="a_Node000006"><a xlink:href="topology_8h.html" target="_top" xlink:title=" ">
<polygon fill="white" stroke="#666666" points="370.75,-85.75 268.5,-85.75 268.5,-55.25 370.75,-55.25 370.75,-85.75"/>
<text xml:space="preserve" text-anchor="start" x="276.5" y="-72.25" font-family="Helvetica,sans-Serif" font-size="10.00">src/include/stroid</text>
<text xml:space="preserve" text-anchor="middle" x="319.62" y="-61" font-family="Helvetica,sans-Serif" font-size="10.00">/topology/topology.h</text>
</a>
</g>
</g>
<!-- Node1&#45;&gt;Node6 -->
<g id="edge6_Node000001_Node000006" class="edge">
<title>Node1&#45;&gt;Node6</title>
<g id="a_edge6_Node000001_Node000006"><a xlink:title=" ">
<path fill="none" stroke="#63b8ff" d="M319.62,-110.06C319.62,-101.89 319.62,-93.16 319.62,-86.08"/>
<polygon fill="#63b8ff" stroke="#63b8ff" points="316.13,-109.85 319.63,-119.85 323.13,-109.85 316.13,-109.85"/>
</a>
</g>
</g>
<!-- Node7 -->
<g id="Node000007" class="node">
<title>Node7</title>
<g id="a_Node000007"><a xlink:href="mesh_8cpp.html" target="_top" xlink:title=" ">
<polygon fill="white" stroke="#666666" points="490.38,-80.12 388.88,-80.12 388.88,-60.88 490.38,-60.88 490.38,-80.12"/>
<text xml:space="preserve" text-anchor="middle" x="439.62" y="-66.62" font-family="Helvetica,sans-Serif" font-size="10.00">src/lib/IO/mesh.cpp</text>
</a>
</g>
</g>
<!-- Node1&#45;&gt;Node7 -->
<g id="edge7_Node000001_Node000007" class="edge">
<title>Node1&#45;&gt;Node7</title>
<g id="a_edge7_Node000001_Node000007"><a xlink:title=" ">
<path fill="none" stroke="#63b8ff" d="M356.92,-115.95C378.99,-104.09 405.86,-89.65 422.86,-80.51"/>
<polygon fill="#63b8ff" stroke="#63b8ff" points="355.34,-112.83 348.19,-120.65 358.65,-119 355.34,-112.83"/>
</a>
</g>
</g>
<!-- Node8 -->
<g id="Node000008" class="node">
<title>Node8</title>
<g id="a_Node000008"><a xlink:href="topology_8cpp.html" target="_top" xlink:title=" ">
<polygon fill="white" stroke="#666666" points="647.12,-80.12 508.12,-80.12 508.12,-60.88 647.12,-60.88 647.12,-80.12"/>
<text xml:space="preserve" text-anchor="middle" x="577.62" y="-66.62" font-family="Helvetica,sans-Serif" font-size="10.00">src/lib/topology/topology.cpp</text>
</a>
</g>
</g>
<!-- Node1&#45;&gt;Node8 -->
<g id="edge8_Node000001_Node000008" class="edge">
<title>Node1&#45;&gt;Node8</title>
<g id="a_edge8_Node000001_Node000008"><a xlink:title=" ">
<path fill="none" stroke="#63b8ff" d="M376.16,-121.87C426.4,-109.31 498.35,-91.32 541.29,-80.58"/>
<polygon fill="#63b8ff" stroke="#63b8ff" points="375.48,-118.43 366.62,-124.25 377.18,-125.22 375.48,-118.43"/>
</a>
</g>
</g>
<!-- Node3 -->
<g id="Node000003" class="node">
<title>Node3</title>
<g id="a_Node000003"><a xlink:href="curvilinear_8cpp.html" target="_top" xlink:title=" ">
<polygon fill="white" stroke="#666666" points="147.25,-19.25 0,-19.25 0,0 147.25,0 147.25,-19.25"/>
<text xml:space="preserve" text-anchor="middle" x="73.62" y="-5.75" font-family="Helvetica,sans-Serif" font-size="10.00">src/lib/topology/curvilinear.cpp</text>
</a>
</g>
</g>
<!-- Node2&#45;&gt;Node3 -->
<g id="edge2_Node000002_Node000003" class="edge">
<title>Node2&#45;&gt;Node3</title>
<g id="a_edge2_Node000002_Node000003"><a xlink:title=" ">
<path fill="none" stroke="#63b8ff" d="M73.62,-43.48C73.62,-34.98 73.62,-26.09 73.62,-19.7"/>
<polygon fill="#63b8ff" stroke="#63b8ff" points="70.13,-43.43 73.63,-53.43 77.13,-43.43 70.13,-43.43"/>
</a>
</g>
</g>
<!-- Node4&#45;&gt;Node3 -->
<g id="edge4_Node000004_Node000003" class="edge">
<title>Node4&#45;&gt;Node3</title>
<g id="a_edge4_Node000004_Node000003"><a xlink:title=" ">
<path fill="none" stroke="#63b8ff" d="M157.11,-49.94C135.39,-39.72 109.85,-27.69 92.79,-19.65"/>
<polygon fill="#63b8ff" stroke="#63b8ff" points="155.5,-53.06 166.04,-54.15 158.48,-46.72 155.5,-53.06"/>
</a>
</g>
</g>
<!-- Node5 -->
<g id="Node000005" class="node">
<title>Node5</title>
<g id="a_Node000005"><a xlink:href="mapping_8cpp.html" target="_top" xlink:title=" ">
<polygon fill="white" stroke="#666666" points="305.88,-19.25 165.38,-19.25 165.38,0 305.88,0 305.88,-19.25"/>
<text xml:space="preserve" text-anchor="middle" x="235.62" y="-5.75" font-family="Helvetica,sans-Serif" font-size="10.00">src/lib/topology/mapping.cpp</text>
</a>
</g>
</g>
<!-- Node4&#45;&gt;Node5 -->
<g id="edge5_Node000004_Node000005" class="edge">
<title>Node4&#45;&gt;Node5</title>
<g id="a_edge5_Node000004_Node000005"><a xlink:title=" ">
<path fill="none" stroke="#63b8ff" d="M213.87,-45.24C219.54,-36.22 225.63,-26.53 229.92,-19.7"/>
<polygon fill="#63b8ff" stroke="#63b8ff" points="210.93,-43.34 208.58,-53.67 216.86,-47.06 210.93,-43.34"/>
</a>
</g>
</g>
</g>
</svg>
