<?xml version="1.0" encoding="UTF-8" standalone="no"?>
<!DOCTYPE svg PUBLIC "-//W3C//DTD SVG 1.1//EN"
 "http://www.w3.org/Graphics/SVG/1.1/DTD/svg11.dtd">
<!-- Generated by graphviz version 13.0.1 (20250615.1724)
 -->
<!-- Title: src/lib/topology/curvilinear.cpp Pages: 1 -->
<svg width="431pt" height="138pt"
 viewBox="0.00 0.00 431.00 138.00" xmlns="http://www.w3.org/2000/svg" xmlns:xlink="http://www.w3.org/1999/xlink">

<svg id="main" version="1.1" xmlns="http://www.w3.org/2000/svg" xmlns:xlink="http://www.w3.org/1999/xlink" xml:space="preserve">

<style type="text/css"><![CDATA[
.node, .edge {opacity: 0.7;}
.node.selected, .edge.selected {opacity: 1;}
.edge:hover path { stroke: red; }
.edge:hover polygon { stroke: red; fill: red; }
]]></style>
<script type="application/ecmascript" xlink:href="svg.min.js"/>
<svg id="graph" class="graph">
<g id="graph0" class="graph" transform="scale(1 1) rotate(0) translate(4 133.75)">
<title>src/lib/topology/curvilinear.cpp</title>
<!-- Node1 -->
<g id="Node000001" class="node">
<title>Node1</title>
<g id="a_Node000001"><a xlink:title=" ">
<polygon fill="#999999" stroke="#666666" points="346.38,-129.75 199.12,-129.75 199.12,-110.5 346.38,-110.5 346.38,-129.75"/>
<text xml:space="preserve" text-anchor="middle" x="272.75" y="-116.25" font-family="Helvetica,sans-Serif" font-size="10.00">src/lib/topology/curvilinear.cpp</text>
</a>
</g>
</g>
<!-- Node2 -->
<g id="Node000002" class="node">
<title>Node2</title>
<g id="a_Node000002"><a xlink:href="curvilinear_8h.html" target="_top" xlink:title=" ">
<polygon fill="white" stroke="#666666" points="137,-74.5 2.5,-74.5 2.5,-55.25 137,-55.25 137,-74.5"/>
<text xml:space="preserve" text-anchor="middle" x="69.75" y="-61" font-family="Helvetica,sans-Serif" font-size="10.00">stroid/topology/curvilinear.h</text>
</a>
</g>
</g>
<!-- Node1&#45;&gt;Node2 -->
<g id="edge1_Node000001_Node000002" class="edge">
<title>Node1&#45;&gt;Node2</title>
<g id="a_edge1_Node000001_Node000002"><a xlink:title=" ">
<path fill="none" stroke="#63b8ff" d="M238.31,-110.09C204.48,-101.22 152.66,-87.62 115.41,-77.85"/>
<polygon fill="#63b8ff" stroke="#63b8ff" points="116.38,-74.49 105.82,-75.34 114.6,-81.26 116.38,-74.49"/>
</a>
</g>
</g>
<!-- Node6 -->
<g id="Node000006" class="node">
<title>Node6</title>
<g id="a_Node000006"><a xlink:href="mapping_8h.html" target="_top" xlink:title=" ">
<polygon fill="white" stroke="#666666" points="282.62,-74.5 154.88,-74.5 154.88,-55.25 282.62,-55.25 282.62,-74.5"/>
<text xml:space="preserve" text-anchor="middle" x="218.75" y="-61" font-family="Helvetica,sans-Serif" font-size="10.00">stroid/topology/mapping.h</text>
</a>
</g>
</g>
<!-- Node1&#45;&gt;Node6 -->
<g id="edge5_Node000001_Node000006" class="edge">
<title>Node1&#45;&gt;Node6</title>
<g id="a_edge5_Node000001_Node000006"><a xlink:title=" ">
<path fill="none" stroke="#63b8ff" d="M263.83,-110.33C256.3,-102.9 245.28,-92.04 236.02,-82.91"/>
<polygon fill="#63b8ff" stroke="#63b8ff" points="238.52,-80.45 228.94,-75.92 233.6,-85.44 238.52,-80.45"/>
</a>
</g>
</g>
<!-- Node7 -->
<g id="Node000007" class="node">
<title>Node7</title>
<g id="a_Node000007"><a xlink:title=" ">
<polygon fill="#e0e0e0" stroke="#999999" points="354.5,-74.5 301,-74.5 301,-55.25 354.5,-55.25 354.5,-74.5"/>
<text xml:space="preserve" text-anchor="middle" x="327.75" y="-61" font-family="Helvetica,sans-Serif" font-size="10.00">iostream</text>
</a>
</g>
</g>
<!-- Node1&#45;&gt;Node7 -->
<g id="edge9_Node000001_Node000007" class="edge">
<title>Node1&#45;&gt;Node7</title>
<g id="a_edge9_Node000001_Node000007"><a xlink:title=" ">
<path fill="none" stroke="#63b8ff" d="M281.83,-110.33C289.59,-102.82 300.96,-91.81 310.45,-82.63"/>
<polygon fill="#63b8ff" stroke="#63b8ff" points="312.63,-85.38 317.38,-75.91 307.76,-80.35 312.63,-85.38"/>
</a>
</g>
</g>
<!-- Node8 -->
<g id="Node000008" class="node">
<title>Node8</title>
<g id="a_Node000008"><a xlink:title=" ">
<polygon fill="#e0e0e0" stroke="#999999" points="423.38,-74.5 372.12,-74.5 372.12,-55.25 423.38,-55.25 423.38,-74.5"/>
<text xml:space="preserve" text-anchor="middle" x="397.75" y="-61" font-family="Helvetica,sans-Serif" font-size="10.00">memory</text>
</a>
</g>
</g>
<!-- Node1&#45;&gt;Node8 -->
<g id="edge10_Node000001_Node000008" class="edge">
<title>Node1&#45;&gt;Node8</title>
<g id="a_edge10_Node000001_Node000008"><a xlink:title=" ">
<path fill="none" stroke="#63b8ff" d="M293.95,-110.09C313.71,-101.68 343.42,-89.02 366,-79.4"/>
<polygon fill="#63b8ff" stroke="#63b8ff" points="367.22,-82.68 375.05,-75.55 364.48,-76.24 367.22,-82.68"/>
</a>
</g>
</g>
<!-- Node3 -->
<g id="Node000003" class="node">
<title>Node3</title>
<g id="a_Node000003"><a xlink:title=" ">
<polygon fill="#e0e0e0" stroke="#999999" points="59.5,-19.25 0,-19.25 0,0 59.5,0 59.5,-19.25"/>
<text xml:space="preserve" text-anchor="middle" x="29.75" y="-5.75" font-family="Helvetica,sans-Serif" font-size="10.00">mfem.hpp</text>
</a>
</g>
</g>
<!-- Node2&#45;&gt;Node3 -->
<g id="edge2_Node000002_Node000003" class="edge">
<title>Node2&#45;&gt;Node3</title>
<g id="a_edge2_Node000002_Node000003"><a xlink:title=" ">
<path fill="none" stroke="#63b8ff" d="M63.14,-55.08C57.79,-47.96 50.07,-37.68 43.4,-28.8"/>
<polygon fill="#63b8ff" stroke="#63b8ff" points="46.21,-26.71 37.41,-20.82 40.62,-30.92 46.21,-26.71"/>
</a>
</g>
</g>
<!-- Node4 -->
<g id="Node000004" class="node">
<title>Node4</title>
<g id="a_Node000004"><a xlink:href="config_8h.html" target="_top" xlink:title=" ">
<polygon fill="white" stroke="#666666" points="184.12,-19.25 77.38,-19.25 77.38,0 184.12,0 184.12,-19.25"/>
<text xml:space="preserve" text-anchor="middle" x="130.75" y="-5.75" font-family="Helvetica,sans-Serif" font-size="10.00">stroid/config/config.h</text>
</a>
</g>
</g>
<!-- Node2&#45;&gt;Node4 -->
<g id="edge3_Node000002_Node000004" class="edge">
<title>Node2&#45;&gt;Node4</title>
<g id="a_edge3_Node000002_Node000004"><a xlink:title=" ">
<path fill="none" stroke="#63b8ff" d="M80.1,-54.84C88.83,-47.22 101.54,-36.12 112.05,-26.95"/>
<polygon fill="#63b8ff" stroke="#63b8ff" points="114.18,-29.73 119.41,-20.52 109.58,-24.46 114.18,-29.73"/>
</a>
</g>
</g>
<!-- Node5 -->
<g id="Node000005" class="node">
<title>Node5</title>
<g id="a_Node000005"><a xlink:title=" ">
<polygon fill="#e0e0e0" stroke="#999999" points="315.12,-19.25 202.38,-19.25 202.38,0 315.12,0 315.12,-19.25"/>
<text xml:space="preserve" text-anchor="middle" x="258.75" y="-5.75" font-family="Helvetica,sans-Serif" font-size="10.00">fourdst/config/config.h</text>
</a>
</g>
</g>
<!-- Node2&#45;&gt;Node5 -->
<g id="edge4_Node000002_Node000005" class="edge">
<title>Node2&#45;&gt;Node5</title>
<g id="a_edge4_Node000002_Node000005"><a xlink:title=" ">
<path fill="none" stroke="#63b8ff" d="M101.81,-54.84C133.17,-46.01 181.14,-32.49 215.79,-22.73"/>
<polygon fill="#63b8ff" stroke="#63b8ff" points="216.4,-26.19 225.07,-20.11 214.5,-19.46 216.4,-26.19"/>
</a>
</g>
</g>
<!-- Node6&#45;&gt;Node3 -->
<g id="edge6_Node000006_Node000003" class="edge">
<title>Node6&#45;&gt;Node3</title>
<g id="a_edge6_Node000006_Node000003"><a xlink:title=" ">
<path fill="none" stroke="#63b8ff" d="M186.69,-54.84C154.66,-45.82 105.32,-31.92 70.53,-22.11"/>
<polygon fill="#63b8ff" stroke="#63b8ff" points="71.81,-18.84 61.24,-19.5 69.91,-25.58 71.81,-18.84"/>
</a>
</g>
</g>
<!-- Node6&#45;&gt;Node4 -->
<g id="edge7_Node000006_Node000004" class="edge">
<title>Node6&#45;&gt;Node4</title>
<g id="a_edge7_Node000006_Node000004"><a xlink:title=" ">
<path fill="none" stroke="#63b8ff" d="M203.82,-54.84C190.55,-46.81 170.88,-34.91 155.3,-25.48"/>
<polygon fill="#63b8ff" stroke="#63b8ff" points="157.41,-22.67 147.05,-20.49 153.79,-28.66 157.41,-22.67"/>
</a>
</g>
</g>
<!-- Node6&#45;&gt;Node5 -->
<g id="edge8_Node000006_Node000005" class="edge">
<title>Node6&#45;&gt;Node5</title>
<g id="a_edge8_Node000006_Node000005"><a xlink:title=" ">
<path fill="none" stroke="#63b8ff" d="M225.36,-55.08C230.71,-47.96 238.43,-37.68 245.1,-28.8"/>
<polygon fill="#63b8ff" stroke="#63b8ff" points="247.88,-30.92 251.09,-20.82 242.29,-26.71 247.88,-30.92"/>
</a>
</g>
</g>
</g>
</svg>
</svg>

<style type='text/css'>
<![CDATA[
[data-mouse-over-selected='false'] { opacity: 0.7; }
[data-mouse-over-selected='true']  { opacity: 1.0; }
]]>
</style>
<script type="application/ecmascript"><![CDATA[
document.addEventListener('DOMContentLoaded', (event) => {
  highlightEdges();
  highlightAdjacentNodes();
});
]]></script>
</svg>
