<?xml version="1.0" encoding="UTF-8" standalone="no"?>
<!DOCTYPE svg PUBLIC "-//W3C//DTD SVG 1.1//EN"
 "http://www.w3.org/Graphics/SVG/1.1/DTD/svg11.dtd">
<!-- Generated by graphviz version 13.0.1 (20250615.1724)
 -->
<!-- Title: src/lib/topology/mapping.cpp Pages: 1 -->
<svg width="337pt" height="138pt"
 viewBox="0.00 0.00 337.00 138.00" xmlns="http://www.w3.org/2000/svg" xmlns:xlink="http://www.w3.org/1999/xlink">

<svg id="main" version="1.1" xmlns="http://www.w3.org/2000/svg" xmlns:xlink="http://www.w3.org/1999/xlink" xml:space="preserve">

<style type="text/css"><![CDATA[
.node, .edge {opacity: 0.7;}
.node.selected, .edge.selected {opacity: 1;}
.edge:hover path { stroke: red; }
.edge:hover polygon { stroke: red; fill: red; }
]]></style>
<script type="application/ecmascript" xlink:href="svg.min.js"/>
<svg id="graph" class="graph">
<g id="graph0" class="graph" transform="scale(1 1) rotate(0) translate(4 133.75)">
<title>src/lib/topology/mapping.cpp</title>
<!-- Node1 -->
<g id="Node000001" class="node">
<title>Node1</title>
<g id="a_Node000001"><a xlink:title=" ">
<polygon fill="#999999" stroke="#666666" points="304,-129.75 163.5,-129.75 163.5,-110.5 304,-110.5 304,-129.75"/>
<text xml:space="preserve" text-anchor="middle" x="233.75" y="-116.25" font-family="Helvetica,sans-Serif" font-size="10.00">src/lib/topology/mapping.cpp</text>
</a>
</g>
</g>
<!-- Node2 -->
<g id="Node000002" class="node">
<title>Node2</title>
<g id="a_Node000002"><a xlink:href="mapping_8h.html" target="_top" xlink:title=" ">
<polygon fill="white" stroke="#666666" points="194.62,-74.5 66.88,-74.5 66.88,-55.25 194.62,-55.25 194.62,-74.5"/>
<text xml:space="preserve" text-anchor="middle" x="130.75" y="-61" font-family="Helvetica,sans-Serif" font-size="10.00">stroid/topology/mapping.h</text>
</a>
</g>
</g>
<!-- Node1&#45;&gt;Node2 -->
<g id="edge1_Node000001_Node000002" class="edge">
<title>Node1&#45;&gt;Node2</title>
<g id="a_edge1_Node000001_Node000002"><a xlink:title=" ">
<path fill="none" stroke="#63b8ff" d="M216.28,-110.09C200.44,-101.91 176.84,-89.71 158.44,-80.19"/>
<polygon fill="#63b8ff" stroke="#63b8ff" points="160.14,-77.13 149.65,-75.65 156.93,-83.35 160.14,-77.13"/>
</a>
</g>
</g>
<!-- Node6 -->
<g id="Node000006" class="node">
<title>Node6</title>
<g id="a_Node000006"><a xlink:title=" ">
<polygon fill="#e0e0e0" stroke="#999999" points="255.25,-74.5 212.25,-74.5 212.25,-55.25 255.25,-55.25 255.25,-74.5"/>
<text xml:space="preserve" text-anchor="middle" x="233.75" y="-61" font-family="Helvetica,sans-Serif" font-size="10.00">cmath</text>
</a>
</g>
</g>
<!-- Node1&#45;&gt;Node6 -->
<g id="edge5_Node000001_Node000006" class="edge">
<title>Node1&#45;&gt;Node6</title>
<g id="a_edge5_Node000001_Node000006"><a xlink:title=" ">
<path fill="none" stroke="#63b8ff" d="M233.75,-110.33C233.75,-103.82 233.75,-94.67 233.75,-86.37"/>
<polygon fill="#63b8ff" stroke="#63b8ff" points="237.25,-86.37 233.75,-76.37 230.25,-86.37 237.25,-86.37"/>
</a>
</g>
</g>
<!-- Node7 -->
<g id="Node000007" class="node">
<title>Node7</title>
<g id="a_Node000007"><a xlink:title=" ">
<polygon fill="#e0e0e0" stroke="#999999" points="328.62,-74.5 272.88,-74.5 272.88,-55.25 328.62,-55.25 328.62,-74.5"/>
<text xml:space="preserve" text-anchor="middle" x="300.75" y="-61" font-family="Helvetica,sans-Serif" font-size="10.00">algorithm</text>
</a>
</g>
</g>
<!-- Node1&#45;&gt;Node7 -->
<g id="edge6_Node000001_Node000007" class="edge">
<title>Node1&#45;&gt;Node7</title>
<g id="a_edge6_Node000001_Node000007"><a xlink:title=" ">
<path fill="none" stroke="#63b8ff" d="M245.12,-110.09C254.8,-102.4 268.95,-91.15 280.56,-81.93"/>
<polygon fill="#63b8ff" stroke="#63b8ff" points="282.72,-84.68 288.37,-75.72 278.36,-79.2 282.72,-84.68"/>
</a>
</g>
</g>
<!-- Node3 -->
<g id="Node000003" class="node">
<title>Node3</title>
<g id="a_Node000003"><a xlink:title=" ">
<polygon fill="#e0e0e0" stroke="#999999" points="59.5,-19.25 0,-19.25 0,0 59.5,0 59.5,-19.25"/>
<text xml:space="preserve" text-anchor="middle" x="29.75" y="-5.75" font-family="Helvetica,sans-Serif" font-size="10.00">mfem.hpp</text>
</a>
</g>
</g>
<!-- Node2&#45;&gt;Node3 -->
<g id="edge2_Node000002_Node000003" class="edge">
<title>Node2&#45;&gt;Node3</title>
<g id="a_edge2_Node000002_Node000003"><a xlink:title=" ">
<path fill="none" stroke="#63b8ff" d="M113.62,-54.84C98.09,-46.66 74.95,-34.46 56.91,-24.94"/>
<polygon fill="#63b8ff" stroke="#63b8ff" points="58.78,-21.98 48.31,-20.41 55.52,-28.17 58.78,-21.98"/>
</a>
</g>
</g>
<!-- Node4 -->
<g id="Node000004" class="node">
<title>Node4</title>
<g id="a_Node000004"><a xlink:href="config_8h.html" target="_top" xlink:title=" ">
<polygon fill="white" stroke="#666666" points="184.12,-19.25 77.38,-19.25 77.38,0 184.12,0 184.12,-19.25"/>
<text xml:space="preserve" text-anchor="middle" x="130.75" y="-5.75" font-family="Helvetica,sans-Serif" font-size="10.00">stroid/config/config.h</text>
</a>
</g>
</g>
<!-- Node2&#45;&gt;Node4 -->
<g id="edge3_Node000002_Node000004" class="edge">
<title>Node2&#45;&gt;Node4</title>
<g id="a_edge3_Node000002_Node000004"><a xlink:title=" ">
<path fill="none" stroke="#63b8ff" d="M130.75,-55.08C130.75,-48.57 130.75,-39.42 130.75,-31.12"/>
<polygon fill="#63b8ff" stroke="#63b8ff" points="134.25,-31.12 130.75,-21.12 127.25,-31.12 134.25,-31.12"/>
</a>
</g>
</g>
<!-- Node5 -->
<g id="Node000005" class="node">
<title>Node5</title>
<g id="a_Node000005"><a xlink:title=" ">
<polygon fill="#e0e0e0" stroke="#999999" points="315.12,-19.25 202.38,-19.25 202.38,0 315.12,0 315.12,-19.25"/>
<text xml:space="preserve" text-anchor="middle" x="258.75" y="-5.75" font-family="Helvetica,sans-Serif" font-size="10.00">fourdst/config/config.h</text>
</a>
</g>
</g>
<!-- Node2&#45;&gt;Node5 -->
<g id="edge4_Node000002_Node000005" class="edge">
<title>Node2&#45;&gt;Node5</title>
<g id="a_edge4_Node000002_Node000005"><a xlink:title=" ">
<path fill="none" stroke="#63b8ff" d="M152.46,-54.84C172.78,-46.39 203.4,-33.65 226.56,-24.02"/>
<polygon fill="#63b8ff" stroke="#63b8ff" points="227.64,-27.36 235.53,-20.28 224.96,-20.89 227.64,-27.36"/>
</a>
</g>
</g>
</g>
</svg>
</svg>

<style type='text/css'>
<![CDATA[
[data-mouse-over-selected='false'] { opacity: 0.7; }
[data-mouse-over-selected='true']  { opacity: 1.0; }
]]>
</style>
<script type="application/ecmascript"><![CDATA[
document.addEventListener('DOMContentLoaded', (event) => {
  highlightEdges();
  highlightAdjacentNodes();
});
]]></script>
</svg>
