<?xml version="1.0" encoding="UTF-8" standalone="no"?>
<!DOCTYPE svg PUBLIC "-//W3C//DTD SVG 1.1//EN"
 "http://www.w3.org/Graphics/SVG/1.1/DTD/svg11.dtd">
<!-- Generated by graphviz version 13.0.1 (20250615.1724)
 -->
<!-- Title: src/include/stroid/topology/mapping.h Pages: 1 -->
<svg width="314pt" height="94pt"
 viewBox="0.00 0.00 314.00 94.00" xmlns="http://www.w3.org/2000/svg" xmlns:xlink="http://www.w3.org/1999/xlink">
<g id="graph0" class="graph" transform="scale(1 1) rotate(0) translate(4 89.75)">
<title>src/include/stroid/topology/mapping.h</title>
<!-- Node1 -->
<g id="Node000001" class="node">
<title>Node1</title>
<g id="a_Node000001"><a xlink:title=" ">
<polygon fill="#999999" stroke="#666666" points="206.5,-85.75 102.75,-85.75 102.75,-55.25 206.5,-55.25 206.5,-85.75"/>
<text xml:space="preserve" text-anchor="start" x="110.75" y="-72.25" font-family="Helvetica,sans-Serif" font-size="10.00">src/include/stroid</text>
<text xml:space="preserve" text-anchor="middle" x="154.62" y="-61" font-family="Helvetica,sans-Serif" font-size="10.00">/topology/mapping.h</text>
</a>
</g>
</g>
<!-- Node2 -->
<g id="Node000002" class="node">
<title>Node2</title>
<g id="a_Node000002"><a xlink:href="curvilinear_8cpp.html" target="_top" xlink:title=" ">
<polygon fill="white" stroke="#666666" points="147.25,-19.25 0,-19.25 0,0 147.25,0 147.25,-19.25"/>
<text xml:space="preserve" text-anchor="middle" x="73.62" y="-5.75" font-family="Helvetica,sans-Serif" font-size="10.00">src/lib/topology/curvilinear.cpp</text>
</a>
</g>
</g>
<!-- Node1&#45;&gt;Node2 -->
<g id="edge1_Node000001_Node000002" class="edge">
<title>Node1&#45;&gt;Node2</title>
<g id="a_edge1_Node000001_Node000002"><a xlink:title=" ">
<path fill="none" stroke="#63b8ff" d="M125.6,-48.4C112.04,-38.55 96.61,-27.33 86.11,-19.7"/>
<polygon fill="#63b8ff" stroke="#63b8ff" points="123.23,-51.01 133.38,-54.06 127.35,-45.35 123.23,-51.01"/>
</a>
</g>
</g>
<!-- Node3 -->
<g id="Node000003" class="node">
<title>Node3</title>
<g id="a_Node000003"><a xlink:href="mapping_8cpp.html" target="_top" xlink:title=" ">
<polygon fill="white" stroke="#666666" points="305.88,-19.25 165.38,-19.25 165.38,0 305.88,0 305.88,-19.25"/>
<text xml:space="preserve" text-anchor="middle" x="235.62" y="-5.75" font-family="Helvetica,sans-Serif" font-size="10.00">src/lib/topology/mapping.cpp</text>
</a>
</g>
</g>
<!-- Node1&#45;&gt;Node3 -->
<g id="edge2_Node000001_Node000003" class="edge">
<title>Node1&#45;&gt;Node3</title>
<g id="a_edge2_Node000001_Node000003"><a xlink:title=" ">
<path fill="none" stroke="#63b8ff" d="M183.65,-48.4C197.21,-38.55 212.64,-27.33 223.14,-19.7"/>
<polygon fill="#63b8ff" stroke="#63b8ff" points="181.9,-45.35 175.87,-54.06 186.02,-51.01 181.9,-45.35"/>
</a>
</g>
</g>
</g>
</svg>
