<?xml version="1.0" encoding="UTF-8" standalone="no"?>
<!DOCTYPE svg PUBLIC "-//W3C//DTD SVG 1.1//EN"
 "http://www.w3.org/Graphics/SVG/1.1/DTD/svg11.dtd">
<!-- Generated by graphviz version 13.0.1 (20250615.1724)
 -->
<!-- Title: src/include/stroid/IO/mesh.h Pages: 1 -->
<svg width="126pt" height="94pt"
 viewBox="0.00 0.00 126.00 94.00" xmlns="http://www.w3.org/2000/svg" xmlns:xlink="http://www.w3.org/1999/xlink">
<g id="graph0" class="graph" transform="scale(1 1) rotate(0) translate(4 89.75)">
<title>src/include/stroid/IO/mesh.h</title>
<!-- Node1 -->
<g id="Node000001" class="node">
<title>Node1</title>
<g id="a_Node000001"><a xlink:title=" ">
<polygon fill="#999999" stroke="#666666" points="99.12,-85.75 8.88,-85.75 8.88,-55.25 99.12,-55.25 99.12,-85.75"/>
<text xml:space="preserve" text-anchor="start" x="16.88" y="-72.25" font-family="Helvetica,sans-Serif" font-size="10.00">src/include/stroid</text>
<text xml:space="preserve" text-anchor="middle" x="54" y="-61" font-family="Helvetica,sans-Serif" font-size="10.00">/IO/mesh.h</text>
</a>
</g>
</g>
<!-- Node2 -->
<g id="Node000002" class="node">
<title>Node2</title>
<g id="a_Node000002"><a xlink:title=" ">
<polygon fill="#e0e0e0" stroke="#999999" points="40,-19.25 0,-19.25 0,0 40,0 40,-19.25"/>
<text xml:space="preserve" text-anchor="middle" x="20" y="-5.75" font-family="Helvetica,sans-Serif" font-size="10.00">string</text>
</a>
</g>
</g>
<!-- Node1&#45;&gt;Node2 -->
<g id="edge1_Node000001_Node000002" class="edge">
<title>Node1&#45;&gt;Node2</title>
<g id="a_edge1_Node000001_Node000002"><a xlink:title=" ">
<path fill="none" stroke="#63b8ff" d="M45.6,-54.95C41.17,-47.28 35.68,-37.77 30.92,-29.54"/>
<polygon fill="#63b8ff" stroke="#63b8ff" points="34.03,-27.92 26,-21.01 27.97,-31.42 34.03,-27.92"/>
</a>
</g>
</g>
<!-- Node3 -->
<g id="Node000003" class="node">
<title>Node3</title>
<g id="a_Node000003"><a xlink:title=" ">
<polygon fill="#e0e0e0" stroke="#999999" points="117.75,-19.25 58.25,-19.25 58.25,0 117.75,0 117.75,-19.25"/>
<text xml:space="preserve" text-anchor="middle" x="88" y="-5.75" font-family="Helvetica,sans-Serif" font-size="10.00">mfem.hpp</text>
</a>
</g>
</g>
<!-- Node1&#45;&gt;Node3 -->
<g id="edge2_Node000001_Node000003" class="edge">
<title>Node1&#45;&gt;Node3</title>
<g id="a_edge2_Node000001_Node000003"><a xlink:title=" ">
<path fill="none" stroke="#63b8ff" d="M62.4,-54.95C66.83,-47.28 72.32,-37.77 77.08,-29.54"/>
<polygon fill="#63b8ff" stroke="#63b8ff" points="80.03,-31.42 82,-21.01 73.97,-27.92 80.03,-31.42"/>
</a>
</g>
</g>
</g>
</svg>
