<?xml version="1.0" encoding="UTF-8" standalone="no"?>
<!DOCTYPE svg PUBLIC "-//W3C//DTD SVG 1.1//EN"
 "http://www.w3.org/Graphics/SVG/1.1/DTD/svg11.dtd">
<!-- Generated by graphviz version 13.0.1 (20250615.1724)
 -->
<!-- Title: src/lib/utils/mesh_utils.cpp Pages: 1 -->
<svg width="218pt" height="149pt"
 viewBox="0.00 0.00 218.00 149.00" xmlns="http://www.w3.org/2000/svg" xmlns:xlink="http://www.w3.org/1999/xlink">
<g id="graph0" class="graph" transform="scale(1 1) rotate(0) translate(4 145)">
<title>src/lib/utils/mesh_utils.cpp</title>
<!-- Node1 -->
<g id="Node000001" class="node">
<title>Node1</title>
<g id="a_Node000001"><a xlink:title=" ">
<polygon fill="#999999" stroke="#666666" points="192.88,-141 102.62,-141 102.62,-110.5 192.88,-110.5 192.88,-141"/>
<text xml:space="preserve" text-anchor="start" x="110.62" y="-127.5" font-family="Helvetica,sans-Serif" font-size="10.00">src/lib/utils/mesh</text>
<text xml:space="preserve" text-anchor="middle" x="147.75" y="-116.25" font-family="Helvetica,sans-Serif" font-size="10.00">_utils.cpp</text>
</a>
</g>
</g>
<!-- Node2 -->
<g id="Node000002" class="node">
<title>Node2</title>
<g id="a_Node000002"><a xlink:href="mesh__utils_8h.html" target="_top" xlink:title=" ">
<polygon fill="white" stroke="#666666" points="119.5,-74.5 0,-74.5 0,-55.25 119.5,-55.25 119.5,-74.5"/>
<text xml:space="preserve" text-anchor="middle" x="59.75" y="-61" font-family="Helvetica,sans-Serif" font-size="10.00">stroid/utils/mesh_utils.h</text>
</a>
</g>
</g>
<!-- Node1&#45;&gt;Node2 -->
<g id="edge1_Node000001_Node000002" class="edge">
<title>Node1&#45;&gt;Node2</title>
<g id="a_edge1_Node000001_Node000002"><a xlink:title=" ">
<path fill="none" stroke="#63b8ff" d="M126,-110.2C112.86,-101.4 96.12,-90.21 82.76,-81.27"/>
<polygon fill="#63b8ff" stroke="#63b8ff" points="84.83,-78.44 74.57,-75.79 80.94,-84.26 84.83,-78.44"/>
</a>
</g>
</g>
<!-- Node3 -->
<g id="Node000003" class="node">
<title>Node3</title>
<g id="a_Node000003"><a xlink:title=" ">
<polygon fill="#e0e0e0" stroke="#999999" points="133.5,-19.25 74,-19.25 74,0 133.5,0 133.5,-19.25"/>
<text xml:space="preserve" text-anchor="middle" x="103.75" y="-5.75" font-family="Helvetica,sans-Serif" font-size="10.00">mfem.hpp</text>
</a>
</g>
</g>
<!-- Node1&#45;&gt;Node3 -->
<g id="edge3_Node000001_Node000003" class="edge">
<title>Node1&#45;&gt;Node3</title>
<g id="a_edge3_Node000001_Node000003"><a xlink:title=" ">
<path fill="none" stroke="#63b8ff" d="M144.82,-110.03C141.72,-95.73 136.24,-73.54 128.75,-55.25 125.14,-46.42 120.15,-37.15 115.59,-29.36"/>
<polygon fill="#63b8ff" stroke="#63b8ff" points="118.58,-27.54 110.39,-20.82 112.6,-31.18 118.58,-27.54"/>
</a>
</g>
</g>
<!-- Node4 -->
<g id="Node000004" class="node">
<title>Node4</title>
<g id="a_Node000004"><a xlink:title=" ">
<polygon fill="#e0e0e0" stroke="#999999" points="210.12,-74.5 175.38,-74.5 175.38,-55.25 210.12,-55.25 210.12,-74.5"/>
<text xml:space="preserve" text-anchor="middle" x="192.75" y="-61" font-family="Helvetica,sans-Serif" font-size="10.00">print</text>
</a>
</g>
</g>
<!-- Node1&#45;&gt;Node4 -->
<g id="edge4_Node000001_Node000004" class="edge">
<title>Node1&#45;&gt;Node4</title>
<g id="a_edge4_Node000001_Node000004"><a xlink:title=" ">
<path fill="none" stroke="#63b8ff" d="M158.87,-110.2C164.93,-102.27 172.49,-92.38 178.93,-83.96"/>
<polygon fill="#63b8ff" stroke="#63b8ff" points="181.6,-86.22 184.89,-76.15 176.04,-81.97 181.6,-86.22"/>
</a>
</g>
</g>
<!-- Node2&#45;&gt;Node3 -->
<g id="edge2_Node000002_Node000003" class="edge">
<title>Node2&#45;&gt;Node3</title>
<g id="a_edge2_Node000002_Node000003"><a xlink:title=" ">
<path fill="none" stroke="#63b8ff" d="M67.02,-55.08C73.03,-47.8 81.76,-37.23 89.21,-28.23"/>
<polygon fill="#63b8ff" stroke="#63b8ff" points="91.69,-30.71 95.36,-20.78 86.29,-26.26 91.69,-30.71"/>
</a>
</g>
</g>
</g>
</svg>
