<?xml version="1.0" encoding="UTF-8" standalone="no"?>
<!DOCTYPE svg PUBLIC "-//W3C//DTD SVG 1.1//EN"
 "http://www.w3.org/Graphics/SVG/1.1/DTD/svg11.dtd">
<!-- Generated by graphviz version 13.0.1 (20250615.1724)
 -->
<!-- Title: src/lib/IO/mesh.cpp Pages: 1 -->
<svg width="436pt" height="138pt"
 viewBox="0.00 0.00 436.00 138.00" xmlns="http://www.w3.org/2000/svg" xmlns:xlink="http://www.w3.org/1999/xlink">
<g id="graph0" class="graph" transform="scale(1 1) rotate(0) translate(4 133.75)">
<title>src/lib/IO/mesh.cpp</title>
<!-- Node1 -->
<g id="Node000001" class="node">
<title>Node1</title>
<g id="a_Node000001"><a xlink:title=" ">
<polygon fill="#999999" stroke="#666666" points="276.31,-129.75 174.81,-129.75 174.81,-110.5 276.31,-110.5 276.31,-129.75"/>
<text xml:space="preserve" text-anchor="middle" x="225.56" y="-116.25" font-family="Helvetica,sans-Serif" font-size="10.00">src/lib/IO/mesh.cpp</text>
</a>
</g>
</g>
<!-- Node2 -->
<g id="Node000002" class="node">
<title>Node2</title>
<g id="a_Node000002"><a xlink:title=" ">
<polygon fill="#e0e0e0" stroke="#999999" points="80.31,-19.25 20.81,-19.25 20.81,0 80.31,0 80.31,-19.25"/>
<text xml:space="preserve" text-anchor="middle" x="50.56" y="-5.75" font-family="Helvetica,sans-Serif" font-size="10.00">mfem.hpp</text>
</a>
</g>
</g>
<!-- Node1&#45;&gt;Node2 -->
<g id="edge1_Node000001_Node000002" class="edge">
<title>Node1&#45;&gt;Node2</title>
<g id="a_edge1_Node000001_Node000002"><a xlink:title=" ">
<path fill="none" stroke="#63b8ff" d="M174.37,-116.1C115.9,-111.45 25.59,-100.21 4.56,-74.5 -8.44,-58.62 9.64,-39.38 26.81,-26.2"/>
<polygon fill="#63b8ff" stroke="#63b8ff" points="28.75,-29.12 34.83,-20.44 24.67,-23.44 28.75,-29.12"/>
</a>
</g>
</g>
<!-- Node3 -->
<g id="Node000003" class="node">
<title>Node3</title>
<g id="a_Node000003"><a xlink:href="config_8h.html" target="_top" xlink:title=" ">
<polygon fill="white" stroke="#666666" points="119.93,-74.5 13.18,-74.5 13.18,-55.25 119.93,-55.25 119.93,-74.5"/>
<text xml:space="preserve" text-anchor="middle" x="66.56" y="-61" font-family="Helvetica,sans-Serif" font-size="10.00">stroid/config/config.h</text>
</a>
</g>
</g>
<!-- Node1&#45;&gt;Node3 -->
<g id="edge2_Node000001_Node000003" class="edge">
<title>Node1&#45;&gt;Node3</title>
<g id="a_edge2_Node000001_Node000003"><a xlink:title=" ">
<path fill="none" stroke="#63b8ff" d="M198.58,-110.09C172.66,-101.41 133.24,-88.21 104.22,-78.49"/>
<polygon fill="#63b8ff" stroke="#63b8ff" points="105.69,-75.29 95.1,-75.43 103.47,-81.93 105.69,-75.29"/>
</a>
</g>
</g>
<!-- Node4 -->
<g id="Node000004" class="node">
<title>Node4</title>
<g id="a_Node000004"><a xlink:href="mesh_8h.html" target="_top" xlink:title=" ">
<polygon fill="white" stroke="#666666" points="226.93,-74.5 138.18,-74.5 138.18,-55.25 226.93,-55.25 226.93,-74.5"/>
<text xml:space="preserve" text-anchor="middle" x="182.56" y="-61" font-family="Helvetica,sans-Serif" font-size="10.00">stroid/IO/mesh.h</text>
</a>
</g>
</g>
<!-- Node1&#45;&gt;Node4 -->
<g id="edge3_Node000001_Node000004" class="edge">
<title>Node1&#45;&gt;Node4</title>
<g id="a_edge3_Node000001_Node000004"><a xlink:title=" ">
<path fill="none" stroke="#63b8ff" d="M218.46,-110.33C212.64,-103.13 204.22,-92.71 197,-83.76"/>
<polygon fill="#63b8ff" stroke="#63b8ff" points="199.77,-81.62 190.76,-76.04 194.32,-86.02 199.77,-81.62"/>
</a>
</g>
</g>
<!-- Node6 -->
<g id="Node000006" class="node">
<title>Node6</title>
<g id="a_Node000006"><a xlink:title=" ">
<polygon fill="#e0e0e0" stroke="#999999" points="294.06,-74.5 245.06,-74.5 245.06,-55.25 294.06,-55.25 294.06,-74.5"/>
<text xml:space="preserve" text-anchor="middle" x="269.56" y="-61" font-family="Helvetica,sans-Serif" font-size="10.00">fstream</text>
</a>
</g>
</g>
<!-- Node1&#45;&gt;Node6 -->
<g id="edge6_Node000001_Node000006" class="edge">
<title>Node1&#45;&gt;Node6</title>
<g id="a_edge6_Node000001_Node000006"><a xlink:title=" ">
<path fill="none" stroke="#63b8ff" d="M232.82,-110.33C238.84,-103.05 247.57,-92.48 255.01,-83.48"/>
<polygon fill="#63b8ff" stroke="#63b8ff" points="257.5,-85.96 261.17,-76.03 252.1,-81.51 257.5,-85.96"/>
</a>
</g>
</g>
<!-- Node7 -->
<g id="Node000007" class="node">
<title>Node7</title>
<g id="a_Node000007"><a xlink:title=" ">
<polygon fill="#e0e0e0" stroke="#999999" points="365.31,-74.5 311.81,-74.5 311.81,-55.25 365.31,-55.25 365.31,-74.5"/>
<text xml:space="preserve" text-anchor="middle" x="338.56" y="-61" font-family="Helvetica,sans-Serif" font-size="10.00">iostream</text>
</a>
</g>
</g>
<!-- Node1&#45;&gt;Node7 -->
<g id="edge7_Node000001_Node000007" class="edge">
<title>Node1&#45;&gt;Node7</title>
<g id="a_edge7_Node000001_Node000007"><a xlink:title=" ">
<path fill="none" stroke="#63b8ff" d="M244.72,-110.09C262.34,-101.79 288.71,-89.36 309.02,-79.79"/>
<polygon fill="#63b8ff" stroke="#63b8ff" points="310.37,-83.03 317.92,-75.6 307.39,-76.69 310.37,-83.03"/>
</a>
</g>
</g>
<!-- Node8 -->
<g id="Node000008" class="node">
<title>Node8</title>
<g id="a_Node000008"><a xlink:title=" ">
<polygon fill="#e0e0e0" stroke="#999999" points="428.18,-74.5 382.93,-74.5 382.93,-55.25 428.18,-55.25 428.18,-74.5"/>
<text xml:space="preserve" text-anchor="middle" x="405.56" y="-61" font-family="Helvetica,sans-Serif" font-size="10.00">cstdint</text>
</a>
</g>
</g>
<!-- Node1&#45;&gt;Node8 -->
<g id="edge8_Node000001_Node000008" class="edge">
<title>Node1&#45;&gt;Node8</title>
<g id="a_edge8_Node000001_Node000008"><a xlink:title=" ">
<path fill="none" stroke="#63b8ff" d="M256.09,-110.09C288.12,-100.62 338.34,-85.76 371.6,-75.92"/>
<polygon fill="#63b8ff" stroke="#63b8ff" points="372.55,-79.29 381.15,-73.1 370.57,-72.58 372.55,-79.29"/>
</a>
</g>
</g>
<!-- Node4&#45;&gt;Node2 -->
<g id="edge5_Node000004_Node000002" class="edge">
<title>Node4&#45;&gt;Node2</title>
<g id="a_edge5_Node000004_Node000002"><a xlink:title=" ">
<path fill="none" stroke="#63b8ff" d="M160.16,-54.84C139.11,-46.35 107.35,-33.54 83.43,-23.89"/>
<polygon fill="#63b8ff" stroke="#63b8ff" points="85.04,-20.76 74.46,-20.27 82.43,-27.26 85.04,-20.76"/>
</a>
</g>
</g>
<!-- Node5 -->
<g id="Node000005" class="node">
<title>Node5</title>
<g id="a_Node000005"><a xlink:title=" ">
<polygon fill="#e0e0e0" stroke="#999999" points="202.56,-19.25 162.56,-19.25 162.56,0 202.56,0 202.56,-19.25"/>
<text xml:space="preserve" text-anchor="middle" x="182.56" y="-5.75" font-family="Helvetica,sans-Serif" font-size="10.00">string</text>
</a>
</g>
</g>
<!-- Node4&#45;&gt;Node5 -->
<g id="edge4_Node000004_Node000005" class="edge">
<title>Node4&#45;&gt;Node5</title>
<g id="a_edge4_Node000004_Node000005"><a xlink:title=" ">
<path fill="none" stroke="#63b8ff" d="M182.56,-55.08C182.56,-48.57 182.56,-39.42 182.56,-31.12"/>
<polygon fill="#63b8ff" stroke="#63b8ff" points="186.06,-31.12 182.56,-21.12 179.06,-31.12 186.06,-31.12"/>
</a>
</g>
</g>
</g>
</svg>
