<?xml version="1.0" encoding="UTF-8" standalone="no"?>
<!DOCTYPE svg PUBLIC "-//W3C//DTD SVG 1.1//EN"
 "http://www.w3.org/Graphics/SVG/1.1/DTD/svg11.dtd">
<!-- Generated by graphviz version 13.0.1 (20250615.1724)
 -->
<!-- Title: src/lib/topology/topology.cpp Pages: 1 -->
<svg width="453pt" height="83pt"
 viewBox="0.00 0.00 453.00 83.00" xmlns="http://www.w3.org/2000/svg" xmlns:xlink="http://www.w3.org/1999/xlink">

<svg id="main" version="1.1" xmlns="http://www.w3.org/2000/svg" xmlns:xlink="http://www.w3.org/1999/xlink" xml:space="preserve">

<style type="text/css"><![CDATA[
.node, .edge {opacity: 0.7;}
.node.selected, .edge.selected {opacity: 1;}
.edge:hover path { stroke: red; }
.edge:hover polygon { stroke: red; fill: red; }
]]></style>
<script type="application/ecmascript" xlink:href="svg.min.js"/>
<svg id="graph" class="graph">
<g id="graph0" class="graph" transform="scale(1 1) rotate(0) translate(4 78.5)">
<title>src/lib/topology/topology.cpp</title>
<!-- Node1 -->
<g id="Node000001" class="node">
<title>Node1</title>
<g id="a_Node000001"><a xlink:title=" ">
<polygon fill="#999999" stroke="#666666" points="233.25,-74.5 94.25,-74.5 94.25,-55.25 233.25,-55.25 233.25,-74.5"/>
<text xml:space="preserve" text-anchor="middle" x="163.75" y="-61" font-family="Helvetica,sans-Serif" font-size="10.00">src/lib/topology/topology.cpp</text>
</a>
</g>
</g>
<!-- Node2 -->
<g id="Node000002" class="node">
<title>Node2</title>
<g id="a_Node000002"><a xlink:title=" ">
<polygon fill="#e0e0e0" stroke="#999999" points="59.5,-19.25 0,-19.25 0,0 59.5,0 59.5,-19.25"/>
<text xml:space="preserve" text-anchor="middle" x="29.75" y="-5.75" font-family="Helvetica,sans-Serif" font-size="10.00">mfem.hpp</text>
</a>
</g>
</g>
<!-- Node1&#45;&gt;Node2 -->
<g id="edge1_Node000001_Node000002" class="edge">
<title>Node1&#45;&gt;Node2</title>
<g id="a_edge1_Node000001_Node000002"><a xlink:title=" ">
<path fill="none" stroke="#63b8ff" d="M141.02,-54.84C119.65,-46.35 87.41,-33.54 63.12,-23.89"/>
<polygon fill="#63b8ff" stroke="#63b8ff" points="64.59,-20.7 54,-20.26 62,-27.21 64.59,-20.7"/>
</a>
</g>
</g>
<!-- Node3 -->
<g id="Node000003" class="node">
<title>Node3</title>
<g id="a_Node000003"><a xlink:title=" ">
<polygon fill="#e0e0e0" stroke="#999999" points="120.25,-19.25 77.25,-19.25 77.25,0 120.25,0 120.25,-19.25"/>
<text xml:space="preserve" text-anchor="middle" x="98.75" y="-5.75" font-family="Helvetica,sans-Serif" font-size="10.00">vector</text>
</a>
</g>
</g>
<!-- Node1&#45;&gt;Node3 -->
<g id="edge2_Node000001_Node000003" class="edge">
<title>Node1&#45;&gt;Node3</title>
<g id="a_edge2_Node000001_Node000003"><a xlink:title=" ">
<path fill="none" stroke="#63b8ff" d="M152.72,-54.84C143.33,-47.15 129.6,-35.9 118.34,-26.68"/>
<polygon fill="#63b8ff" stroke="#63b8ff" points="120.74,-24.11 110.78,-20.48 116.3,-29.53 120.74,-24.11"/>
</a>
</g>
</g>
<!-- Node4 -->
<g id="Node000004" class="node">
<title>Node4</title>
<g id="a_Node000004"><a xlink:title=" ">
<polygon fill="#e0e0e0" stroke="#999999" points="189.38,-19.25 138.12,-19.25 138.12,0 189.38,0 189.38,-19.25"/>
<text xml:space="preserve" text-anchor="middle" x="163.75" y="-5.75" font-family="Helvetica,sans-Serif" font-size="10.00">memory</text>
</a>
</g>
</g>
<!-- Node1&#45;&gt;Node4 -->
<g id="edge3_Node000001_Node000004" class="edge">
<title>Node1&#45;&gt;Node4</title>
<g id="a_edge3_Node000001_Node000004"><a xlink:title=" ">
<path fill="none" stroke="#63b8ff" d="M163.75,-55.08C163.75,-48.57 163.75,-39.42 163.75,-31.12"/>
<polygon fill="#63b8ff" stroke="#63b8ff" points="167.25,-31.12 163.75,-21.12 160.25,-31.12 167.25,-31.12"/>
</a>
</g>
</g>
<!-- Node5 -->
<g id="Node000005" class="node">
<title>Node5</title>
<g id="a_Node000005"><a xlink:href="config_8h.html" target="_top" xlink:title=" ">
<polygon fill="white" stroke="#666666" points="314.12,-19.25 207.38,-19.25 207.38,0 314.12,0 314.12,-19.25"/>
<text xml:space="preserve" text-anchor="middle" x="260.75" y="-5.75" font-family="Helvetica,sans-Serif" font-size="10.00">stroid/config/config.h</text>
</a>
</g>
</g>
<!-- Node1&#45;&gt;Node5 -->
<g id="edge4_Node000001_Node000005" class="edge">
<title>Node1&#45;&gt;Node5</title>
<g id="a_edge4_Node000001_Node000005"><a xlink:title=" ">
<path fill="none" stroke="#63b8ff" d="M180.2,-54.84C194.98,-46.73 216.93,-34.68 234.18,-25.21"/>
<polygon fill="#63b8ff" stroke="#63b8ff" points="235.81,-28.31 242.89,-20.43 232.44,-22.18 235.81,-28.31"/>
</a>
</g>
</g>
<!-- Node6 -->
<g id="Node000006" class="node">
<title>Node6</title>
<g id="a_Node000006"><a xlink:title=" ">
<polygon fill="#e0e0e0" stroke="#999999" points="445.12,-19.25 332.38,-19.25 332.38,0 445.12,0 445.12,-19.25"/>
<text xml:space="preserve" text-anchor="middle" x="388.75" y="-5.75" font-family="Helvetica,sans-Serif" font-size="10.00">fourdst/config/config.h</text>
</a>
</g>
</g>
<!-- Node1&#45;&gt;Node6 -->
<g id="edge5_Node000001_Node000006" class="edge">
<title>Node1&#45;&gt;Node6</title>
<g id="a_edge5_Node000001_Node000006"><a xlink:title=" ">
<path fill="none" stroke="#63b8ff" d="M202.17,-54.78C240.03,-45.82 298.04,-32.09 339.32,-22.32"/>
<polygon fill="#63b8ff" stroke="#63b8ff" points="340.09,-25.74 349.01,-20.03 338.48,-18.93 340.09,-25.74"/>
</a>
</g>
</g>
</g>
</svg>
</svg>

<style type='text/css'>
<![CDATA[
[data-mouse-over-selected='false'] { opacity: 0.7; }
[data-mouse-over-selected='true']  { opacity: 1.0; }
]]>
</style>
<script type="application/ecmascript"><![CDATA[
document.addEventListener('DOMContentLoaded', (event) => {
  highlightEdges();
  highlightAdjacentNodes();
});
]]></script>
</svg>
