<?xml version="1.0" encoding="UTF-8" standalone="no"?>
<!DOCTYPE svg PUBLIC "-//W3C//DTD SVG 1.1//EN"
 "http://www.w3.org/Graphics/SVG/1.1/DTD/svg11.dtd">
<!-- Generated by graphviz version 13.0.1 (20250615.1724)
 -->
<!-- Title: src/include/stroid/topology/topology.h Pages: 1 -->
<svg width="392pt" height="94pt"
 viewBox="0.00 0.00 392.00 94.00" xmlns="http://www.w3.org/2000/svg" xmlns:xlink="http://www.w3.org/1999/xlink">

<svg id="main" version="1.1" xmlns="http://www.w3.org/2000/svg" xmlns:xlink="http://www.w3.org/1999/xlink" xml:space="preserve">

<style type="text/css"><![CDATA[
.node, .edge {opacity: 0.7;}
.node.selected, .edge.selected {opacity: 1;}
.edge:hover path { stroke: red; }
.edge:hover polygon { stroke: red; fill: red; }
]]></style>
<script type="application/ecmascript" xlink:href="svg.min.js"/>
<svg id="graph" class="graph">
<g id="graph0" class="graph" transform="scale(1 1) rotate(0) translate(4 89.75)">
<title>src/include/stroid/topology/topology.h</title>
<!-- Node1 -->
<g id="Node000001" class="node">
<title>Node1</title>
<g id="a_Node000001"><a xlink:title=" ">
<polygon fill="#999999" stroke="#666666" points="245.88,-85.75 143.62,-85.75 143.62,-55.25 245.88,-55.25 245.88,-85.75"/>
<text xml:space="preserve" text-anchor="start" x="151.62" y="-72.25" font-family="Helvetica,sans-Serif" font-size="10.00">src/include/stroid</text>
<text xml:space="preserve" text-anchor="middle" x="194.75" y="-61" font-family="Helvetica,sans-Serif" font-size="10.00">/topology/topology.h</text>
</a>
</g>
</g>
<!-- Node2 -->
<g id="Node000002" class="node">
<title>Node2</title>
<g id="a_Node000002"><a xlink:title=" ">
<polygon fill="#e0e0e0" stroke="#999999" points="59.5,-19.25 0,-19.25 0,0 59.5,0 59.5,-19.25"/>
<text xml:space="preserve" text-anchor="middle" x="29.75" y="-5.75" font-family="Helvetica,sans-Serif" font-size="10.00">mfem.hpp</text>
</a>
</g>
</g>
<!-- Node1&#45;&gt;Node2 -->
<g id="edge1_Node000001_Node000002" class="edge">
<title>Node1&#45;&gt;Node2</title>
<g id="a_edge1_Node000001_Node000002"><a xlink:title=" ">
<path fill="none" stroke="#63b8ff" d="M153.54,-54.8C126.6,-45.18 91.74,-32.75 65.89,-23.52"/>
<polygon fill="#63b8ff" stroke="#63b8ff" points="67.07,-20.23 56.48,-20.16 64.72,-26.82 67.07,-20.23"/>
</a>
</g>
</g>
<!-- Node3 -->
<g id="Node000003" class="node">
<title>Node3</title>
<g id="a_Node000003"><a xlink:href="config_8h.html" target="_top" xlink:title=" ">
<polygon fill="white" stroke="#666666" points="184.12,-19.25 77.38,-19.25 77.38,0 184.12,0 184.12,-19.25"/>
<text xml:space="preserve" text-anchor="middle" x="130.75" y="-5.75" font-family="Helvetica,sans-Serif" font-size="10.00">stroid/config/config.h</text>
</a>
</g>
</g>
<!-- Node1&#45;&gt;Node3 -->
<g id="edge2_Node000001_Node000003" class="edge">
<title>Node1&#45;&gt;Node3</title>
<g id="a_edge2_Node000001_Node000003"><a xlink:title=" ">
<path fill="none" stroke="#63b8ff" d="M178.93,-54.95C169.84,-46.59 158.39,-36.05 148.93,-27.35"/>
<polygon fill="#63b8ff" stroke="#63b8ff" points="151.46,-24.92 141.73,-20.73 146.72,-30.07 151.46,-24.92"/>
</a>
</g>
</g>
<!-- Node4 -->
<g id="Node000004" class="node">
<title>Node4</title>
<g id="a_Node000004"><a xlink:title=" ">
<polygon fill="#e0e0e0" stroke="#999999" points="315.12,-19.25 202.38,-19.25 202.38,0 315.12,0 315.12,-19.25"/>
<text xml:space="preserve" text-anchor="middle" x="258.75" y="-5.75" font-family="Helvetica,sans-Serif" font-size="10.00">fourdst/config/config.h</text>
</a>
</g>
</g>
<!-- Node1&#45;&gt;Node4 -->
<g id="edge3_Node000001_Node000004" class="edge">
<title>Node1&#45;&gt;Node4</title>
<g id="a_edge3_Node000001_Node000004"><a xlink:title=" ">
<path fill="none" stroke="#63b8ff" d="M210.57,-54.95C219.66,-46.59 231.11,-36.05 240.57,-27.35"/>
<polygon fill="#63b8ff" stroke="#63b8ff" points="242.78,-30.07 247.77,-20.73 238.04,-24.92 242.78,-30.07"/>
</a>
</g>
</g>
<!-- Node5 -->
<g id="Node000005" class="node">
<title>Node5</title>
<g id="a_Node000005"><a xlink:title=" ">
<polygon fill="#e0e0e0" stroke="#999999" points="384.38,-19.25 333.12,-19.25 333.12,0 384.38,0 384.38,-19.25"/>
<text xml:space="preserve" text-anchor="middle" x="358.75" y="-5.75" font-family="Helvetica,sans-Serif" font-size="10.00">memory</text>
</a>
</g>
</g>
<!-- Node1&#45;&gt;Node5 -->
<g id="edge4_Node000001_Node000005" class="edge">
<title>Node1&#45;&gt;Node5</title>
<g id="a_edge4_Node000001_Node000005"><a xlink:title=" ">
<path fill="none" stroke="#63b8ff" d="M235.71,-54.8C262.49,-45.18 297.13,-32.75 322.83,-23.52"/>
<polygon fill="#63b8ff" stroke="#63b8ff" points="323.95,-26.84 332.17,-20.17 321.58,-20.25 323.95,-26.84"/>
</a>
</g>
</g>
</g>
</svg>
</svg>

<style type='text/css'>
<![CDATA[
[data-mouse-over-selected='false'] { opacity: 0.7; }
[data-mouse-over-selected='true']  { opacity: 1.0; }
]]>
</style>
<script type="application/ecmascript"><![CDATA[
document.addEventListener('DOMContentLoaded', (event) => {
  highlightEdges();
  highlightAdjacentNodes();
});
]]></script>
</svg>
